# xmcd
#
# Track frame offsets:
#	150
#	15112
#	32405
#	47623
#	62429
#	75307
#	91665
#	105344
#	119900
#	134320
#	150801
#	165863
#	179523
#	193142
#	211072
#
# Disc length: 3072 seconds
#
# Revision: 1
# Processed by: cddbd v1.5.2PL0 Copyright (c) Steve Scherf et al.
# Submitted via: audiograbber 1.83.01
#
DISCID=a10bfe0f
DTITLE=Tom Astor - Gegen den Strom
DYEAR=2018
DGENRE=Deutsch Country
TTITLE0=Heute denk' ich nicht so viel an morgen
TTITLE1=Brave Rebellen
TTITLE2=Komm raus aus dem Schatten
TTITLE3=Verlier dich nicht in der Vergangenheit
TTITLE4=Jeder Tag ist ein Abenteuer
TTITLE5=Von Chicago nach L. A.
TTITLE6=14 Tage - 14 Nächte
TTITLE7=Geh' deinen Weg
TTITLE8=Kopf hoch
TTITLE9=Das alte Klavier (The Old Rugged Cross)
TTITLE10=Träume sind Flügel (Sweet Surrender)
TTITLE11=Damit es so bleibt
TTITLE12=Er war der Größte (Muhammad Ali Goodbye)
TTITLE13=Unsere Welt hängt ziemlich schief (Just A Closer Walk With Thee)
TTITLE14=Sommer in der Stadt
EXTD=Release-Date: 23.02.2018\n\nMARO\n
EXTT0=
EXTT1=
EXTT2=
EXTT3=
EXTT4=
EXTT5=
EXTT6=
EXTT7=
EXTT8=
EXTT9=
EXTT10=
EXTT11=
EXTT12=
EXTT13=
EXTT14=
PLAYORDER=
